<?xml version="1.0" encoding="utf-8"?>
<!-- Generator: Adobe Illustrator 23.0.5, SVG Export Plug-In . SVG Version: 6.00 Build 0)  -->
<svg version="1.1" id="Layer_1" xmlns="http://www.w3.org/2000/svg" xmlns:xlink="http://www.w3.org/1999/xlink" x="0px" y="0px"
	 viewBox="0 0 1130.4 447.6" style="enable-background:new 0 0 1130.4 447.6;" xml:space="preserve">
<style type="text/css">
	.st0{fill:#E82127;}
</style>
<g>
	<g>
		<path class="st0" d="M223.9,441l57.4-322.7c54.7,0,72,6,74.4,30.5c0,0,36.7-13.7,55.2-41.5c-72.2-33.5-144.8-35-144.8-35
			l-42.3,51.6l0.1,0l-42.3-51.6c0,0-72.6,1.5-144.8,35C55.3,135.1,92,148.7,92,148.7c2.5-24.5,19.7-30.5,74.1-30.5L223.9,441"/>
		<path class="st0" d="M223.9,57.4c58.4-0.4,125.2,9,193.6,38.8c9.1-16.5,11.5-23.7,11.5-23.7c-74.8-29.6-144.8-39.7-205.1-40
			c-60.3,0.3-130.3,10.4-205.1,40c0,0,3.3,9,11.5,23.7C98.6,66.4,165.5,57,223.9,57.4L223.9,57.4"/>
	</g>
	<path class="st0" d="M1008.9,227.2v55.6h17.8v-37h64.9v37h17.8v-55.5L1008.9,227.2 M1024.7,209.2h68.5c9.5-1.9,16.6-10.3,18.6-18.4
		h-105.7C1008.1,198.9,1015.3,207.3,1024.7,209.2 M954.9,282.8c9-3.8,13.8-10.4,15.7-18.1h-80l0.1-73.9l-17.9,0.1v91.9H954.9
		 M739.4,208.9h63.3c9.5-2.8,17.6-10,19.5-18.1H721.7v54.3H804v19.1l-64.6,0.1c-10.1,2.8-18.7,9.6-23,18.6l5.2-0.1h100v-55.7h-82.2
		L739.4,208.9 M583.2,209.1h68.5c9.5-1.9,16.6-10.3,18.6-18.4H564.6C566.5,198.8,573.7,207.2,583.2,209.1 M583.2,245.4h68.5
		c9.5-1.9,16.6-10.3,18.6-18.4H564.6C566.5,235.2,573.7,243.6,583.2,245.4 M583.2,282.8h68.5c9.5-1.9,16.6-10.3,18.6-18.4H564.6
		C566.5,272.5,573.7,280.9,583.2,282.8 M404.9,190.9c2.1,8,9,16.2,18.6,18.3h28.8l1.5,0.6v72.8h18v-72.8l1.6-0.6h28.9
		c9.6-2.5,16.5-10.3,18.5-18.3v-0.2H404.9V190.9"/>
</g>
</svg>
